<svg xmlns="http://www.w3.org/2000/svg" width="32" height="32" viewBox="0 0 32 32" shape-rendering="crispEdges">
  <rect x="3" y="3" width="26" height="26" fill="#ffffff" stroke="#000"/>
  <rect x="3" y="3" width="26" height="6" fill="#1f7244"/>
  <text x="16" y="8" font-family="Arial" font-size="5" font-weight="bold" fill="#ffffff" text-anchor="middle">XLS</text>
  <g fill="#1f7244">
    <rect x="4" y="10" width="7" height="4"/>
    <rect x="12" y="10" width="7" height="4"/>
    <rect x="20" y="10" width="8" height="4"/>
    <rect x="4" y="15" width="7" height="4"/>
    <rect x="12" y="15" width="7" height="4"/>
    <rect x="20" y="15" width="8" height="4"/>
    <rect x="4" y="20" width="7" height="4"/>
    <rect x="12" y="20" width="7" height="4"/>
    <rect x="20" y="20" width="8" height="4"/>
  </g>
  <g stroke="#ffffff" stroke-width="0.5">
    <line x1="11" y1="10" x2="11" y2="24"/>
    <line x1="19" y1="10" x2="19" y2="24"/>
    <line x1="4" y1="14" x2="28" y2="14"/>
    <line x1="4" y1="19" x2="28" y2="19"/>
  </g>
  <text x="16" y="27" font-family="Arial" font-size="4" fill="#fff" text-anchor="middle" font-weight="bold">Σ</text>
</svg>
