<svg xmlns="http://www.w3.org/2000/svg" width="32" height="32" viewBox="0 0 32 32" shape-rendering="crispEdges">
  <!-- Stand base -->
  <rect x="10" y="28" width="12" height="2" fill="#333"/>
  <rect x="15" y="22" width="2" height="6" fill="#666"/>
  <!-- Mic body (classic pill) -->
  <rect x="11" y="4" width="10" height="16" fill="#c0c0c0" stroke="#000" stroke-width="1"/>
  <rect x="12" y="5" width="8" height="14" fill="#e0e0e0"/>
  <!-- Grille lines -->
  <rect x="13" y="7" width="6" height="1" fill="#888"/>
  <rect x="13" y="10" width="6" height="1" fill="#888"/>
  <rect x="13" y="13" width="6" height="1" fill="#888"/>
  <rect x="13" y="16" width="6" height="1" fill="#888"/>
  <!-- Top cap -->
  <rect x="11" y="3" width="10" height="2" fill="#808080"/>
  <!-- Sound waves -->
  <path d="M6 10 Q4 14 6 18" stroke="#ff6600" stroke-width="1.5" fill="none"/>
  <path d="M3 8 Q0 14 3 20" stroke="#ff6600" stroke-width="1" fill="none" opacity="0.6"/>
  <path d="M26 10 Q28 14 26 18" stroke="#ff6600" stroke-width="1.5" fill="none"/>
  <path d="M29 8 Q32 14 29 20" stroke="#ff6600" stroke-width="1" fill="none" opacity="0.6"/>
</svg>
